<?xml version="1.0" encoding="UTF-8" standalone="no"?>
<svg xmlns="http://www.w3.org/2000/svg" width="160" height="100" viewBox="0 0 160 100">
  <g fill="none" fill-rule="evenodd">
    <path fill="#77CC9A" d="M120,20 C120,20 150,20 150,50 C150,80 120,80 120,80 L40,80 C40,80 10,80 10,50 C10,20 40,20 40,20 L120,20 Z"/>
    <path fill="#000000" d="M140,10 L140,90 C140,90 160,90 160,50 C160,10 140,10 140,10 Z"/>
    <path fill="#000000" d="M20,10 L20,90 C20,90 0,90 0,50 C0,10 20,10 20,10 Z"/>
    <path fill="#FFFFFF" d="M113,35 L113,65 L123,65 L123,55 C123,55 123,45 113,45 L113,35 Z"/>
    <path fill="#FFFFFF" d="M83,35 L83,65 L93,65 L93,55 C93,55 93,45 83,45 L83,35 Z"/>
    <path fill="#FFFFFF" d="M93,45 L113,45 L113,55 L93,55 L93,45 Z"/>
    <path fill="#FCD305" d="M53,42 C53,42 63,42 63,50 C63,58 53,58 53,58 L53,42 Z"/>
    <path fill="#EB2027" d="M73,42 C73,42 63,42 63,50 C63,58 73,58 73,58 L73,42 Z"/>
    <circle cx="33" cy="58" r="3" fill="#000000"/>
  </g>
</svg>