<?xml version="1.0" encoding="UTF-8" standalone="no"?>
<svg xmlns="http://www.w3.org/2000/svg" width="120" height="120" viewBox="0 0 120 120">
  <g transform="translate(0 0)">
    <path fill="#FF4D27" d="M114.7,35.1c-5.1-12.2-13.4-22.1-24.6-29C78.7-0.7,65.8-1.6,52.7,2.3c-13.7,4-24.7,12.1-32.7,24.3
      C12.8,37,8.6,48.8,8.2,61.9c-0.4,13.2,3.4,25.2,10.7,36c7.3,10.8,16.9,18.5,29.2,22.3c9.8,3,19.6,3.3,29.4,1.4
      c17.8-3.5,31.4-13.1,40.9-28.9c5.2-8.7,7.8-18.3,8.3-28.5C127.1,52.5,124.4,41.3,114.7,35.1z"/>
    <g fill="#FFFFFF">
      <path d="M42.2,37.4c-0.8,0-1.5-0.3-2.1-0.8c-0.6-0.6-0.9-1.3-0.9-2.1V25c0-0.8,0.3-1.5,0.9-2.1c0.6-0.6,1.3-0.8,2.1-0.8
        c0.8,0,1.5,0.3,2.1,0.8c0.6,0.6,0.9,1.3,0.9,2.1v9.5c0,0.8-0.3,1.5-0.9,2.1C43.7,37.1,43,37.4,42.2,37.4z"/>
      <path d="M74.9,72.1c-0.8,0-1.5-0.3-2.1-0.8c-0.6-0.6-0.9-1.3-0.9-2.1V37.4h-8.3c-0.8,0-1.5-0.3-2.1-0.9
        c-0.6-0.6-0.9-1.3-0.9-2.1c0-0.8,0.3-1.5,0.9-2.1c0.6-0.6,1.3-0.9,2.1-0.9h22.6c0.8,0,1.5,0.3,2.1,0.9c0.6,0.6,0.9,1.3,0.9,2.1
        c0,0.8-0.3,1.5-0.9,2.1C88.7,37,88,37.3,87.2,37.3h-8.3v31.9c0,0.8-0.3,1.5-0.9,2.1C76.4,71.9,75.7,72.1,74.9,72.1z"/>
      <path d="M42.2,72.1c-0.8,0-1.5-0.3-2.1-0.8c-0.6-0.6-0.9-1.3-0.9-2.1V47.7c0-0.8,0.3-1.5,0.9-2.1c0.6-0.6,1.3-0.8,2.1-0.8
        c0.8,0,1.5,0.3,2.1,0.8c0.6,0.6,0.9,1.3,0.9,2.1v21.5c0,0.8-0.3,1.5-0.9,2.1C43.7,71.9,43,72.1,42.2,72.1z"/>
      <path d="M56.8,89c-0.8,0-1.5-0.3-2.1-0.8c-0.6-0.6-0.9-1.3-0.9-2.1V47.7c0-0.8,0.3-1.5,0.9-2.1c0.6-0.6,1.3-0.8,2.1-0.8
        c0.8,0,1.5,0.3,2.1,0.8c0.6,0.6,0.9,1.3,0.9,2.1v38.4c0,0.8-0.3,1.5-0.9,2.1C58.3,88.7,57.6,89,56.8,89z"/>
      <path d="M27.7,89c-0.8,0-1.5-0.3-2.1-0.8c-0.6-0.6-0.9-1.3-0.9-2.1V47.7c0-0.8,0.3-1.5,0.9-2.1c0.6-0.6,1.3-0.8,2.1-0.8
        c0.8,0,1.5,0.3,2.1,0.8c0.6,0.6,0.9,1.3,0.9,2.1v38.4c0,0.8-0.3,1.5-0.9,2.1C29.2,88.7,28.5,89,27.7,89z"/>
      <path d="M95.7,98.1H49c-4.3,0-7.7-3.5-7.7-7.7c0-0.8,0.3-1.5,0.9-2.1c0.6-0.6,1.3-0.9,2.1-0.9c0.8,0,1.5,0.3,2.1,0.9
        c0.6,0.6,0.9,1.3,0.9,2.1c0,1,0.8,1.7,1.7,1.7h46.7c1,0,1.7-0.8,1.7-1.7V74.5c0-0.8,0.3-1.5,0.9-2.1c0.6-0.6,1.3-0.9,2.1-0.9
        c0.8,0,1.5,0.3,2.1,0.9c0.6,0.6,0.9,1.3,0.9,2.1v15.9C103.4,94.6,99.9,98.1,95.7,98.1z"/>
    </g>
  </g>
</svg>