<?xml version="1.0" encoding="UTF-8"?>
<svg width="1440" height="900" viewBox="0 0 1440 900" xmlns="http://www.w3.org/2000/svg">
  <defs>
    <linearGradient id="grad1" x1="0%" y1="0%" x2="100%" y2="100%">
      <stop offset="0%" style="stop-color:#f0f7ff;stop-opacity:1" />
      <stop offset="100%" style="stop-color:#e1ecf7;stop-opacity:1" />
    </linearGradient>
    <linearGradient id="grad2" x1="0%" y1="0%" x2="100%" y2="100%">
      <stop offset="0%" style="stop-color:#3b5998;stop-opacity:0.05" />
      <stop offset="100%" style="stop-color:#3b5998;stop-opacity:0.1" />
    </linearGradient>
  </defs>
  <rect width="100%" height="100%" fill="url(#grad1)"/>
  
  <!-- Decorative patterns -->
  <path d="M0,0 L1440,0 L1440,900 L0,900 Z" fill="url(#grad2)"/>
  
  <!-- Circles -->
  <circle cx="200" cy="150" r="80" fill="#3b5998" fill-opacity="0.03"/>
  <circle cx="1240" cy="650" r="120" fill="#3b5998" fill-opacity="0.03"/>
  
  <!-- Abstract shapes -->
  <path d="M-100,200 Q400,50 800,300 T1600,400" stroke="#3b5998" stroke-width="2" fill="none" stroke-opacity="0.1"/>
  <path d="M-100,400 Q400,250 800,500 T1600,600" stroke="#3b5998" stroke-width="2" fill="none" stroke-opacity="0.1"/>
  <path d="M-100,600 Q400,450 800,700 T1600,800" stroke="#3b5998" stroke-width="2" fill="none" stroke-opacity="0.1"/>
  
  <!-- Pattern elements -->
  <g fill="#3b5998" fill-opacity="0.05">
    <circle cx="100" cy="100" r="10"/>
    <circle cx="1300" cy="200" r="15"/>
    <circle cx="200" cy="800" r="12"/>
    <circle cx="1100" cy="700" r="8"/>
    <circle cx="700" cy="500" r="20"/>
    <circle cx="900" cy="200" r="15"/>
    <circle cx="300" cy="300" r="8"/>
    <circle cx="1200" cy="400" r="12"/>
    <circle cx="400" cy="600" r="10"/>
    <circle cx="800" cy="800" r="15"/>
  </g>
</svg>